<svg width="60" height="60" viewBox="0 0 60 60" fill="none" xmlns="http://www.w3.org/2000/svg">
<path d="M33.9113 33.975C34.9275 32.9587 35.5575 31.5525 35.5575 30C35.5575 28.4475 34.9275 27.0412 33.9113 26.025C31.6988 23.8125 8.71133 8.775 8.71133 8.775C8.71133 8.775 23.7113 31.7625 25.9238 33.975C26.4459 34.5036 27.0678 34.9232 27.7534 35.2097C28.439 35.4961 29.1746 35.6436 29.9175 35.6436C30.6605 35.6436 31.3961 35.4961 32.0817 35.2097C32.7673 34.9232 33.3891 34.5036 33.9113 33.975Z" fill="#215878"/>
<path d="M29.9363 0V11.25H33.6863V5.9625C45.51 7.81875 54.4462 17.9325 54.4462 30.1312C54.4455 33.9112 53.5683 37.6395 51.8837 41.0232C50.199 44.407 47.7528 47.3541 44.7371 49.633C41.7214 51.9119 38.2184 53.4605 34.5032 54.1573C30.7881 54.8541 26.962 54.68 23.3255 53.6487C19.6889 52.6174 16.3411 50.757 13.5448 48.2136C10.7485 45.6702 8.58006 42.5131 7.20969 38.9903C5.83932 35.4676 5.3044 31.675 5.64693 27.9107C5.98947 24.1463 7.20013 20.5126 9.18383 17.295L5.74884 12.3375C1.99824 17.4614 -0.0160535 23.6501 9.63586e-05 30C9.63586e-05 35.9334 1.75956 41.7336 5.056 46.6671C8.35244 51.6006 13.0378 55.4457 18.5196 57.7164C24.0013 59.987 30.0333 60.5811 35.8527 59.4235C41.6722 58.266 47.0176 55.4088 51.2132 51.2132C55.4088 47.0176 58.266 41.6721 59.4235 35.8527C60.5811 30.0333 59.987 24.0013 57.7164 18.5195C55.4458 13.0377 51.6006 8.35235 46.6671 5.05591C41.7337 1.75947 35.9335 0 30 0H29.9363Z" fill="#215878"/>
</svg>
