<svg width="59" height="76" viewBox="0 0 59 76" fill="none" xmlns="http://www.w3.org/2000/svg">
<path d="M29.4999 42.909C26.8478 42.909 24.2553 42.1226 22.0502 40.6492C19.8451 39.1758 18.1264 37.0816 17.1115 34.6314C16.0966 32.1812 15.8311 29.4851 16.3485 26.884C16.8659 24.2829 18.143 21.8936 20.0183 20.0183C21.8935 18.143 24.2828 16.8659 26.8839 16.3485C29.485 15.8311 32.1811 16.0967 34.6313 17.1116C37.0815 18.1265 39.1757 19.8452 40.6491 22.0503C42.1226 24.2554 42.909 26.8479 42.909 29.5C42.9047 33.055 41.4906 36.4631 38.9769 38.9769C36.4631 41.4907 33.0549 42.9048 29.4999 42.909ZM29.4999 21.4545C27.9087 21.4545 26.3532 21.9264 25.0301 22.8104C23.707 23.6945 22.6758 24.951 22.0669 26.4211C21.4579 27.8912 21.2986 29.5089 21.609 31.0696C21.9195 32.6302 22.6857 34.0638 23.8109 35.189C24.9361 36.3141 26.3697 37.0804 27.9303 37.3908C29.491 37.7013 31.1087 37.5419 32.5788 36.933C34.0489 36.324 35.3054 35.2928 36.1895 33.9698C37.0735 32.6467 37.5454 31.0912 37.5454 29.5C37.5432 27.3668 36.6949 25.3217 35.1865 23.8133C33.6782 22.305 31.633 21.4566 29.4999 21.4545Z" fill="#215878"/>
<path d="M29.5 75.0908L6.87621 48.4095C6.56185 48.0088 6.25075 47.6056 5.94293 47.2C2.07839 42.1093 -0.00933591 35.8913 3.1385e-05 29.5C3.1385e-05 21.6761 3.10806 14.1727 8.64037 8.64034C14.1727 3.10802 21.6761 0 29.5 0C37.3239 0 44.8273 3.10802 50.3596 8.64034C55.8919 14.1727 59 21.6761 59 29.5C59.0093 35.8884 56.9226 42.1036 53.0597 47.1919L53.0571 47.2C53.0571 47.2 52.2525 48.2566 52.1318 48.3987L29.5 75.0908ZM10.2231 43.9684C10.2285 43.9684 10.8507 44.7944 10.9928 44.9714L29.5 66.7987L48.0313 44.9419C48.1493 44.7944 48.7796 43.9603 48.7796 43.9603C51.9365 39.8011 53.6425 34.7215 53.6363 29.5C53.6363 23.0986 51.0934 16.9594 46.567 12.433C42.0405 7.90656 35.9014 5.36363 29.5 5.36363C23.0986 5.36363 16.9595 7.90656 12.433 12.433C7.90659 16.9594 5.36366 23.0986 5.36366 29.5C5.35804 34.7248 7.06334 39.8073 10.2231 43.9684Z" fill="#215878"/>
</svg>
